<svg width="269" height="269" version="1.1" xmlns="http://www.w3.org/2000/svg" xmlns:xlink="http://www.w3.org/1999/xlink"><path d="M144.99 43.58L144.99 43.58Q140.42 43.58 132.62 39.27L132.62 39.27L129.39 37.66Q128.85 36.85 120.24 30.67L120.24 30.67Q113.25 25.56 113.25 19.64L113.25 19.64L115.94 18.83Q138.53 22.33 144.72 28.78L144.72 28.78Q147.41 31.74 147.95 35.24L147.95 35.24Q148.49 38.20 147.41 40.62L147.41 40.62Q146.61 42.50 144.99 43.58ZM218.97 175.93L218.97 175.93L215.47 177.81Q179.69 178.35 159.79 181.58L159.79 181.58L134.77 186.96Q129.66 187.76 124.82 185.07L124.82 185.07Q121.59 183.46 119.71 180.77L119.71 180.77L121.05 179.15L157.10 173.51L157.37 143.65L138.00 146.07Q126.97 146.34 125.89 140.15L125.89 140.15L127.78 139.07L156.83 133.96L157.10 133.96Q158.17 125.62 157.10 118.09L157.10 118.09Q156.29 113.52 154.68 109.21L154.68 109.21Q152.52 108.95 128.58 116.75L128.58 116.75L123.20 118.36L122.66 116.48L150.10 101.14Q161.13 94.15 164.09 88.77L164.09 88.77L165.97 83.12Q166.24 82.58 167.05 82.31L167.05 82.31Q172.43 80.43 184.27 88.23L184.27 88.23Q188.03 90.65 189.65 92.54L189.65 92.54Q189.65 95.50 186.69 96.30L186.69 96.30L168.66 102.22L162.75 105.45L170.28 112.17L169.47 129.66L184.53 126.70Q192.60 126.16 197.18 130.47L197.18 130.47Q198.79 132.08 198.79 133.42L198.79 133.42L195.83 135.58Q181.31 137.46 168.93 140.69L168.93 140.69Q168.93 140.96 167.32 171.08L167.32 171.08Q171.08 171.35 188.84 167.32L188.84 167.32Q208.48 163.01 216.01 170.82L216.01 170.82L217.08 171.89Q218.97 174.31 218.97 175.93ZM239.95 220.31L240.76 221.39L240.22 223.54L237.26 225.96L200.14 235.91Q191.26 237.53 183.46 237.53L183.46 237.53Q178.89 237.53 178.08 237.26L178.08 237.26Q170.01 235.38 125.09 207.67L125.09 207.67L119.44 203.90Q99.53 189.91 94.15 186.96L94.15 186.96L78.55 204.44Q73.98 209.01 68.86 211.70L68.86 211.70Q58.37 217.89 52.19 219.24L52.19 219.24L51.92 218.16Q74.24 197.98 85.54 182.38L85.54 182.38Q82.85 180.77 70.75 178.08L70.75 178.08Q63.22 176.46 63.22 173.24L63.22 173.24Q70.48 168.66 84.73 172.70L84.73 172.70Q87.43 173.51 90.12 174.58L90.12 174.58Q102.49 153.06 97.92 147.95L97.92 147.95Q95.76 145.80 83.93 143.38L83.93 143.38Q83.39 143.11 82.85 143.11L82.85 143.11Q82.85 140.69 88.50 130.20L88.50 130.20Q93.61 120.78 93.61 114.59L93.61 114.59Q91.19 112.98 81.24 115.13L81.24 115.13Q72.36 117.28 70.21 113.52L70.21 113.52Q85.00 108.14 94.96 101.68L94.96 101.68Q105.45 102.76 112.44 109.75L112.44 109.75Q112.44 112.44 106.52 118.36L106.52 118.36L104.37 121.05L93.61 138.27Q93.61 142.03 101.68 142.30L101.68 142.30Q112.71 143.11 115.13 146.07L115.13 146.07Q116.75 147.95 116.75 151.18L116.75 151.18Q112.17 156.56 100.88 175.39L100.88 175.39L98.99 178.35Q151.99 211.43 195.03 217.35L195.03 217.35Q197.45 217.62 229.19 219.50L229.19 219.50Q235.11 219.77 239.95 220.31L239.95 220.31ZM193.14 57.03L193.14 57.03Q193.14 61.60 187.22 63.22L187.22 63.22L86.35 79.89Q85.54 80.16 73.17 77.74L73.17 77.74Q69.94 83.39 66.98 110.56L66.98 110.56L66.17 117.02Q53.26 193.14 17.75 227.57L17.75 227.57Q11.57 233.49 6.73 233.49L6.73 233.49L6.73 231.61Q50.03 174.85 54.61 98.99L54.61 98.99Q55.15 92.81 55.15 86.62L55.15 86.62Q55.15 74.24 50.84 65.64L50.84 65.64L51.11 64.02Q56.22 60.26 66.44 67.25L66.44 67.25Q68.59 68.60 70.21 69.94L70.21 69.94Q99.80 68.60 142.03 59.72L142.03 59.72L170.01 52.72Q172.70 52.19 175.12 51.92L175.12 51.92Q181.31 51.38 186.15 52.99L186.15 52.99Q190.45 54.34 193.14 57.03Z" stroke="#000" fill="black" /></svg>