<svg width="269" height="269" version="1.1" xmlns="http://www.w3.org/2000/svg" xmlns:xlink="http://www.w3.org/1999/xlink"><path d="M194.76 53.80L194.76 53.80Q194.76 58.64 188.57 59.99L188.57 59.99L181.84 61.87L180.77 62.68Q157.63 69.40 153.60 69.94L153.60 69.94Q152.79 71.02 150.37 79.36L150.37 79.36Q149.83 80.43 149.56 81.24L149.56 81.24Q167.32 84.74 171.89 86.62L171.89 86.62Q178.08 89.58 181.58 94.15L181.58 94.15Q182.38 97.38 182.38 103.83L182.38 103.83Q181.31 104.91 176.73 104.91L176.73 104.91L148.76 85.00Q136.38 108.95 124.01 113.79L124.01 113.79Q121.05 114.86 118.09 115.13L118.09 115.13L117.55 113.79Q138.53 94.69 142.30 60.79L142.30 60.79Q143.11 52.46 142.84 44.39L142.84 44.39Q142.57 40.08 135.31 29.05L135.31 29.05Q135.04 25.56 138.80 25.29L138.80 25.29Q139.07 25.29 144.99 25.82L144.99 25.82Q159.52 33.89 160.59 39.01L160.59 39.01Q161.13 40.89 157.90 50.03L157.90 50.03Q155.48 57.57 154.94 65.64L154.94 65.64L172.97 50.03Q176.46 46.54 177.27 44.92L177.27 44.92L178.35 41.16Q178.89 40.89 179.69 40.62L179.69 40.62Q183.73 39.27 192.07 49.50L192.07 49.50Q194.22 52.19 194.76 53.80ZM111.90 72.36L111.90 72.36Q111.90 69.13 112.44 68.33L112.44 68.33Q121.86 70.21 127.51 76.40L127.51 76.40Q132.08 81.51 128.85 86.62L128.85 86.62Q124.01 93.88 112.71 73.98L112.71 73.98Q111.90 72.63 111.90 72.36ZM117.55 56.22L117.55 58.64L91.46 73.98Q90.65 74.24 90.12 74.51L90.12 74.51L86.35 87.43L101.41 92.00Q111.10 96.03 112.17 102.22L112.17 102.22L111.90 106.79L110.56 108.68L110.29 108.95L106.79 108.41L85.00 92.81Q69.13 119.71 51.11 121.05L51.11 121.05L51.38 119.71Q70.21 103.83 77.47 80.97L77.47 80.97Q84.73 57.30 73.71 40.08L73.71 40.08Q75.86 32.55 90.12 40.62L90.12 40.62Q92.54 41.96 93.88 43.31L93.88 43.31L92.27 51.11Q90.92 57.30 90.92 70.21L90.92 70.21Q99.80 59.72 100.34 58.91L100.34 58.91Q103.57 54.07 103.83 49.23L103.83 49.23Q110.56 49.23 117.55 56.22L117.55 56.22ZM221.12 132.62L221.12 132.62Q218.70 133.96 207.40 136.38L207.40 136.38L204.71 136.92Q202.02 137.73 184.80 145.26L184.80 145.26Q182.38 146.07 180.23 146.87L180.23 146.87L177.27 146.34L187.76 125.35Q188.30 124.28 188.57 123.20L188.57 123.20L185.07 120.51Q140.42 120.51 77.74 134.23L77.74 134.23L58.10 138.54Q54.34 139.07 50.30 138.27L50.30 138.27Q47.61 137.73 45.46 136.65L45.46 136.65Q44.39 139.07 37.93 155.48L37.93 155.48Q34.70 164.36 30.67 169.20L30.67 169.20L28.51 170.01Q21.79 167.86 21.52 151.72L21.52 151.72L31.20 138.00Q33.89 133.42 34.70 129.12L34.70 129.12L35.78 123.20Q36.58 121.59 39.01 121.86L39.01 121.86Q41.96 124.01 45.19 129.39L45.19 129.39L165.70 113.52L186.42 110.02Q197.45 108.95 201.75 112.71L201.75 112.71L215.47 124.82Q220.85 130.20 221.12 132.62ZM66.44 74.78L66.44 74.78Q67.79 85.27 64.56 87.96L64.56 87.96Q58.37 87.96 52.46 79.62L52.46 79.62Q47.61 73.17 45.19 71.29L45.19 71.29Q45.19 67.25 45.46 66.44L45.46 66.44Q60.26 68.33 65.10 73.44L65.10 73.44Q65.91 73.98 66.44 74.78ZM224.62 225.42L225.96 227.31L224.62 228.65Q186.15 235.38 172.70 229.73L172.70 229.73L171.08 228.92Q161.67 223.81 126.43 182.11L126.43 182.11Q123.47 178.62 122.13 177.00L122.13 177.00L121.32 245.87L118.90 252.86L117.02 254.47L114.86 254.74Q103.57 241.02 103.57 231.34L103.57 231.34Q103.57 228.38 106.26 222.19L106.26 222.19Q108.68 214.93 108.68 178.08L108.68 178.08Q86.35 214.39 57.03 229.19L57.03 229.19Q45.73 235.11 34.16 236.45L34.16 236.45L33.89 235.38L63.75 212.51Q90.38 190.72 98.72 170.01L98.72 170.01Q95.50 170.01 79.62 173.77L79.62 173.77Q62.95 177.81 55.68 169.74L55.68 169.74Q55.15 169.20 54.88 168.66L54.88 168.66L55.15 167.32L105.45 160.06Q107.60 159.79 109.48 159.52L109.48 159.52Q108.41 144.18 107.33 140.96L107.33 140.96Q106.79 139.61 106.26 138.54L106.26 138.54Q108.14 137.19 110.83 137.46L110.83 137.46L112.44 137.46Q121.32 142.84 123.74 146.07L123.74 146.07L122.66 156.83L122.66 157.10Q125.09 157.10 144.72 153.06L144.72 153.06Q165.70 148.76 175.66 157.37L175.66 157.37L178.62 160.06Q178.62 163.01 175.12 164.09L175.12 164.09Q149.03 164.36 122.66 166.51L122.66 166.51L121.86 167.32Q137.73 182.92 159.52 197.72L159.52 197.72Q168.13 203.36 173.51 205.52L173.51 205.52L224.62 225.42Z" stroke="#000" fill="black" /></svg>