<svg width="269" height="269" version="1.1" xmlns="http://www.w3.org/2000/svg" xmlns:xlink="http://www.w3.org/1999/xlink"><path d="M235.38 208.80L237.26 211.49L235.64 212.84Q206.86 215.53 191.80 214.45L191.80 214.45Q178.35 204.50 146.61 161.46L146.61 161.46Q143.38 156.89 141.49 154.73L141.49 154.73L141.49 228.71Q141.49 245.12 136.92 250.50L136.92 250.50L133.69 253.46Q127.51 253.19 124.01 233.55L124.01 233.55Q123.20 228.98 123.20 226.56L123.20 226.56Q123.20 223.87 125.09 216.60L125.09 216.60Q130.20 199.39 129.93 163.07L129.93 163.07Q129.93 157.42 129.93 154.73L129.93 154.73Q105.18 193.20 72.09 210.96L72.09 210.96Q67.25 213.65 62.14 215.80L62.14 215.80Q51.65 219.83 49.50 219.83L49.50 219.83Q47.08 219.83 44.39 219.29L44.39 219.29L44.39 218.49L79.36 194.82Q111.10 171.41 120.51 146.93L120.51 146.93L103.83 149.09Q103.57 149.35 102.22 152.58L102.22 152.58Q101.95 153.12 101.41 153.39L101.41 153.39L99.80 152.85Q93.88 149.09 90.92 132.95L90.92 132.95Q89.58 126.49 88.77 124.07L88.77 124.07Q84.47 109.54 78.28 97.98L78.28 97.98Q78.28 95.82 79.62 94.75L79.62 94.75Q91.46 97.98 111.90 92.86L111.90 92.86Q124.01 89.91 129.39 89.10L129.39 89.10L130.20 88.29L129.93 70.00L109.48 71.61Q104.91 71.34 101.41 70.00L101.41 70.00Q99.26 69.19 97.38 67.58L97.38 67.58Q98.19 65.16 101.14 64.35L101.14 64.35Q105.72 64.08 126.70 59.51L126.70 59.51L129.39 58.97Q129.39 43.91 119.17 30.19L119.17 30.19L119.17 26.69Q123.20 21.58 137.73 29.92L137.73 29.92Q144.72 33.95 146.61 36.91L146.61 36.91Q147.68 38.80 143.65 53.05L143.65 53.05Q143.38 53.86 143.11 54.40L143.11 54.40L164.90 48.21Q174.85 46.60 181.04 52.78L181.04 52.78Q181.04 55.47 177.54 56.55L177.54 56.55L142.84 66.50L141.49 67.58L140.96 86.14Q146.34 86.41 163.28 82.91L163.28 82.91Q174.58 80.49 182.92 81.30L182.92 81.30L196.37 90.17Q199.33 92.60 201.21 95.02L201.21 95.02Q201.21 99.05 195.56 103.89L195.56 103.89Q193.14 105.78 192.07 107.12L192.07 107.12Q190.18 109.81 181.04 130.79L181.04 130.79L175.39 141.82Q174.04 143.97 172.97 144.78L172.97 144.78Q170.55 146.66 165.97 146.66L165.97 146.66Q163.28 144.24 163.28 141.55L163.28 141.55Q148.22 142.09 141.49 144.24L141.49 144.24Q171.35 172.76 175.93 176.52L175.93 176.52Q196.64 194.28 227.57 205.84L227.57 205.84Q231.34 207.19 235.38 208.80L235.38 208.80ZM175.39 93.13L175.39 93.13L173.77 90.71Q158.71 90.71 141.49 94.21L141.49 94.21L141.49 110.08Q152.79 110.08 155.75 111.43L155.75 111.43Q158.17 112.50 159.25 114.38L159.25 114.38L159.79 117.34Q157.10 118.96 147.14 120.03L147.14 120.03L141.49 121.38L142.03 134.83Q152.25 131.60 161.94 132.41L161.94 132.41Q163.28 132.41 164.36 132.68L164.36 132.68Q172.70 107.12 175.39 93.13ZM129.93 137.25L130.20 123.53L113.79 125.14Q110.29 122.99 109.75 121.11L109.75 121.11L130.20 113.58L130.20 96.63L104.91 102.28Q100.07 103.89 96.30 105.51L96.30 105.51L103.57 142.36L129.93 137.25ZM82.05 65.16L82.05 65.16Q82.05 68.65 75.59 73.77L75.59 73.77L72.36 76.72Q61.60 88.56 59.45 91.52L59.45 91.52Q57.84 93.94 57.03 96.36L57.03 96.36Q57.03 100.13 65.10 111.16L65.10 111.16Q75.86 126.22 75.86 137.25L75.86 137.25Q75.86 144.78 71.29 149.62L71.29 149.62Q68.33 152.58 64.56 151.24L64.56 151.24Q57.57 143.97 38.74 129.45L38.74 129.45L38.47 128.10L54.07 132.41Q59.72 133.21 61.06 130.52L61.06 130.52Q61.06 122.99 53.26 109.00L53.26 109.00Q50.30 103.36 49.23 100.13L49.23 100.13L49.50 95.02L61.60 71.61Q61.60 69.46 58.91 67.58L58.91 67.58Q56.22 67.85 44.92 71.61L44.92 71.61Q44.39 71.88 43.58 72.15L43.58 72.15Q43.04 72.42 35.78 73.50L35.78 73.50Q31.20 74.30 31.20 76.99L31.20 76.99Q31.20 78.07 32.01 79.68L32.01 79.68L30.40 185.13L30.67 211.49Q29.59 230.86 23.94 233.55L23.94 233.55Q21.25 233.28 17.75 227.36L17.75 227.36Q11.30 217.68 15.33 200.46L15.33 200.46Q18.02 187.82 18.29 185.13L18.29 185.13Q23.94 145.59 21.52 105.78L21.52 105.78Q20.98 95.29 19.64 87.48L19.64 87.48Q19.37 84.53 14.26 67.85L14.26 67.85Q12.91 64.08 12.37 61.12L12.37 61.12Q18.29 57.63 27.98 65.16L27.98 65.16Q29.05 65.96 30.13 67.04L30.13 67.04Q48.96 64.89 64.29 54.13L64.29 54.13Q72.63 54.13 82.05 65.16Z" stroke="#000" fill="black" /></svg>