<?xml version="1.0" encoding="UTF-8" standalone="no"?>
        <svg 
    viewBox="10.3271484375 -85.7666015625 447.4365234375 56.9091796875"
    width="437.109375"
    height="142.67578125"
   xmlns="http://www.w3.org/2000/svg"
   xmlns:svg="http://www.w3.org/2000/svg">
   <path d="M58.37-42.92L58.37-89.58L58.37-97.34L78.44-89.58L88.48-89.58L88.48-101.22L56.25-101.22Q52.22-94.41 47.02-86.50Q41.82-78.59 36.91-72.58L36.91-72.58Q46.00-66.87 51.27-58.89Q56.54-50.90 58.37-42.92L58.37-42.92ZM10.33 14.43L10.33-116.53L10.33-124.66L32.23-116.53L37.50-116.53L47.24-125.98L66.14-108.91Q64.45-106.79 59.40-106.79L59.40-106.79L58.67-105.47L88.48-105.47L88.48-126.93L114.33-124.37Q114.11-122.75 113.01-121.69Q111.91-120.63 108.76-120.12L108.76-120.12L108.76-105.47L118.95-105.47L129.27-119.53Q129.27-119.53 131.14-117.99Q133.01-116.46 135.90-114.00Q138.79-111.55 141.94-108.80Q145.09-106.05 147.58-103.64L147.58-103.64Q146.92-101.22 143.26-101.22L143.26-101.22L108.76-101.22L108.76-89.58L117.11-89.58L125.83-98.88L143.70-85.47Q143.04-84.74 141.72-83.94Q140.41-83.13 138.28-82.62L138.28-82.62L138.28-39.77Q138.21-39.26 135.50-38.16Q132.79-37.06 129.02-36.15Q125.24-35.23 122.09-35.23L122.09-35.23L118.65-35.23L118.65-43.07L109.94-43.07Q113.96-34.42 120.45-28.56Q126.93-22.71 134.40-19.04Q141.87-15.38 148.97-13.33L148.97-13.33L148.68-12.01Q142.82-10.18 138.87-4.76Q134.91 0.66 133.37 8.13L133.37 8.13Q126.78 2.05 122.06-4.91Q117.33-11.87 114.11-20.73Q110.89-29.59 108.76-41.53L108.76-41.53L108.76 7.03Q108.76 8.13 106.27 9.78Q103.78 11.43 100.01 12.78Q96.24 14.14 92.43 14.14L92.43 14.14L88.48 14.14L88.48-19.63Q79.83-10.84 68.33-3.99Q56.84 2.86 42.77 7.98L42.77 7.98L41.53 6.30Q55.52-2.71 65.59-15.78Q75.66-28.86 81.15-43.07L81.15-43.07L77.56-43.07L77.56-39.62Q77.56-38.67 75.11-37.24Q72.66-35.82 68.88-34.72Q65.11-33.62 61.08-33.62L61.08-33.62L59.25-33.62Q59.03-23.00 53.98-16.66Q48.93-10.33 36.47-10.18L36.47-10.18Q36.47-14.36 35.93-19.26Q35.38-24.17 34.50-26.07L34.50-26.07Q33.40-28.27 30.32-29.74L30.32-29.74L30.32 8.13Q30.32 8.86 28.34 10.36Q26.37 11.87 22.71 13.15Q19.04 14.43 13.92 14.43L13.92 14.43L10.33 14.43ZM88.48-47.24L88.48-64.53L77.56-64.53L77.56-47.24L88.48-47.24ZM118.65-64.53L108.76-64.53L108.76-47.24L118.65-47.24L118.65-64.53ZM77.56-68.70L88.48-68.70L88.48-85.33L77.56-85.33L77.56-68.70ZM108.76-85.33L108.76-68.70L118.65-68.70L118.65-85.33L108.76-85.33ZM38.82-112.35L30.32-112.35L30.32-32.23L35.23-32.23Q37.13-32.23 38.23-33.03L38.23-33.03Q40.80-34.64 40.80-40.65L40.80-40.65Q40.80-48.41 39.11-56.73Q37.43-65.04 33.18-72.14L33.18-72.14Q34.20-77.20 35.34-84.30Q36.47-91.41 37.43-98.88Q38.38-106.35 38.82-112.35L38.82-112.35ZM173.73-121.66L173.73-121.66L175.93-121.66Q180.25-111.11 178.67-103.60Q177.10-96.09 172.78-93.31L172.78-93.31Q169.85-91.41 166.08-92.10Q162.30-92.80 160.99-96.31L160.99-96.31Q159.81-99.68 161.50-102.39Q163.18-105.10 166.19-106.64L166.19-106.64Q169.26-108.47 171.72-112.76Q174.17-117.04 173.73-121.66ZM233.86-121.07L233.86-121.07L236.28-121.07Q240.31-110.60 238.48-103.38Q236.65-96.17 232.32-93.60L232.32-93.60Q229.32-91.92 225.70-92.58Q222.07-93.24 220.83-96.61L220.83-96.61Q219.80-99.83 221.45-102.43Q223.10-105.03 226.03-106.35L226.03-106.35Q229.17-108.18 231.67-112.32Q234.16-116.46 233.86-121.07ZM210.28-121.36L210.28-121.36L226.83-114.77Q226.25-113.53 224.85-112.72Q223.46-111.91 221.12-112.06L221.12-112.06Q217.60-108.91 213.61-105.76Q209.62-102.61 206.10-100.49L206.10-100.49L203.83-101.73Q205.30-105.32 207.02-110.63Q208.74-115.94 210.28-121.36ZM272.09-121.07L272.09-121.07L291.28-111.77Q290.77-110.60 289.23-109.86Q287.70-109.13 285.28-109.50L285.28-109.50Q280.81-106.71 275.72-104.08Q270.63-101.44 266.09-99.90L266.09-99.90L264.18-101.07Q265.94-104.74 268.07-110.08Q270.19-115.43 272.09-121.07ZM244.63-128.25L244.63-128.25L268.65-126.27Q268.43-124.80 267.33-123.78Q266.24-122.75 263.82-122.53L263.82-122.53Q263.38-116.02 262.61-110.08Q261.84-104.15 259.35-98.88L259.35-98.88Q270.04-98.14 275.72-94.81Q281.40-91.48 283.04-87.27Q284.69-83.06 283.23-79.50Q281.76-75.95 278.10-74.85L278.10-74.85L292.02-61.67Q291.06-60.64 289.78-60.24Q288.50-59.84 286.08-59.69L286.08-59.69Q283.23-58.01 279.46-56.14Q275.68-54.27 271.66-52.51L271.66-52.51Q273.05-51.42 276.23-48.89Q279.42-46.36 283.12-43.32Q286.82-40.28 289.82-37.65L289.82-37.65Q289.16-35.23 285.42-35.23L285.42-35.23L237.30-35.23Q244.04-28.71 253.71-23.69Q263.38-18.68 274.37-15.31Q285.35-11.94 296.12-10.33L296.12-10.33L295.83-8.72Q289.75-7.03 285.35-1.79Q280.96 3.44 279.13 11.43L279.13 11.43Q262.94 4.61 252.21-6.30Q241.48-17.21 234.59-32.89L234.59-32.89L234.59 9.01Q234.59 9.74 231.88 10.95Q229.17 12.16 225.04 13.15Q220.90 14.14 216.58 14.14L216.58 14.14L212.84 14.14L212.84-18.46Q201.86-9.30 187.39-2.34Q172.92 4.61 156.15 9.45L156.15 9.45L155.27 7.98Q164.58 2.64 172.63-4.50Q180.69-11.65 187.21-19.59Q193.73-27.54 198.27-35.23L198.27-35.23L165.01-35.23L163.77-39.48L212.84-39.48L212.84-59.99L240.16-57.57Q239.94-56.10 238.84-54.97Q237.74-53.83 234.59-53.39L234.59-53.39L234.59-39.48L260.23-39.48L269.53-51.64Q266.60-50.39 263.75-49.29Q260.89-48.19 258.47-47.39L258.47-47.39L257.52-48.27Q258.91-51.56 260.19-55.99Q261.47-60.42 262.50-64.38L262.50-64.38L184.20-64.38Q183.98-57.06 180.98-52.04Q177.98-47.02 173.73-44.82L173.73-44.82Q170.95-43.29 167.65-43.43Q164.36-43.58 161.68-45.34Q159.01-47.09 157.98-50.39L157.98-50.39Q156.74-55.00 159.05-58.41Q161.35-61.82 165.31-63.57L165.31-63.57Q168.31-64.67 171.50-66.94Q174.68-69.21 177.06-72.29Q179.44-75.37 180.03-78.88L180.03-78.88L181.93-78.88Q182.89-76.10 183.36-73.50Q183.84-70.90 184.06-68.55L184.06-68.55L261.91-68.55L269.97-76.68Q267.63-80.93 263.85-85.33Q260.08-89.72 256.05-93.46L256.05-93.46Q251.66-87.60 243.24-82.76Q234.81-77.93 220.02-74.27L220.02-74.27L218.85-76.17Q228.74-81.01 234.05-86.57Q239.36-92.14 241.55-98.55Q243.75-104.96 244.15-112.35Q244.56-119.75 244.63-128.25ZM186.04-128.25L186.04-128.25L208.67-126.42Q208.45-124.95 207.31-123.93Q206.18-122.90 203.83-122.53L203.83-122.53Q203.54-116.46 202.84-110.93Q202.15-105.40 200.24-100.34L200.24-100.34Q210.35-99.32 215.19-96.09Q220.02-92.87 220.86-89.06Q221.70-85.25 219.62-82.21Q217.53-79.17 213.68-78.33Q209.84-77.49 205.37-80.42L205.37-80.42Q204.57-84.30 202.62-88.48Q200.68-92.65 198.49-96.17L198.49-96.17Q194.60-88.84 185.96-82.98Q177.32-77.12 160.77-72.73L160.77-72.73L159.45-74.71Q169.56-79.61 175.01-85.36Q180.47-91.11 182.74-97.71Q185.01-104.30 185.45-111.91Q185.89-119.53 186.04-128.25ZM379.03-18.60L377.86-22.78L398.58-22.78L398.58-53.83L382.32-53.83L386.13-50.68Q385.40-49.44 384.23-48.96Q383.06-48.49 380.71-48.12L380.71-48.12Q378.81-38.60 375.48-29.92Q372.14-21.24 366.72-13.77L366.72-13.77Q374.41-10.84 384.34-9.92Q394.26-9.01 406.93-9.01L406.93-9.01Q410.30-9.01 415.58-9.01Q420.85-9.01 426.78-9.05Q432.71-9.08 438.21-9.12Q443.70-9.16 447.44-9.30L447.44-9.30L447.44-7.62Q442.38-6.30 439.89-1.28Q437.40 3.74 437.40 9.89L437.40 9.89Q434.77 9.89 430.59 9.89Q426.42 9.89 421.80 9.89Q417.19 9.89 413.01 9.89Q408.84 9.89 406.20 9.89L406.20 9.89Q389.58 9.89 377.64 7.10Q365.70 4.32 357.57-3.44L357.57-3.44Q351.49 2.05 343.32 6.59Q335.16 11.13 324.46 14.28L324.46 14.28L323.58 12.45Q332.74 7.40 339.22 0.92Q345.70-5.57 349.95-13.33L349.95-13.33Q344.24-23.58 340.94-38.96L340.94-38.96L342.11-39.62Q346.73-28.27 353.83-21.61L353.83-21.61Q356.54-28.27 358.19-35.63Q359.84-42.99 360.72-50.83L360.72-50.83L356.98-50.83L354.57-45.48Q350.98-44.31 346.33-44.57Q341.67-44.82 335.67-47.09L335.67-47.09Q338.31-52.73 341.05-59.18Q343.80-65.63 346.29-71.92Q348.78-78.22 350.68-83.42L350.68-83.42L339.33-83.42L337.94-87.60L350.54-87.60L358.67-96.61L376.03-82.47Q374.05-80.20 369.29-79.83L369.29-79.83Q367.53-75.22 364.71-68.44Q361.89-61.67 358.96-55.08L358.96-55.08L359.55-55.08L368.99-64.82L377.27-58.08L398.58-58.08L398.58-78.74Q393.16-78.22 387.63-77.86Q382.10-77.49 376.83-77.42L376.83-77.42L376.32-79.47Q384.45-81.81 393.16-85.33Q401.88-88.84 409.50-92.69Q417.11-96.53 422.09-99.90L422.09-99.90L439.67-83.72Q436.89-81.15 430.22-83.86L430.22-83.86Q427.51-83.20 424.48-82.62Q421.44-82.03 418.07-81.45L418.07-81.45L418.07-58.08L423.12-58.08L431.69-70.53Q431.69-70.53 434.33-68.15Q436.96-65.77 440.48-62.44Q443.99-59.11 446.70-56.25L446.70-56.25Q446.04-53.83 442.68-53.83L442.68-53.83L418.07-53.83L418.07-22.78L420.26-22.78L428.98-34.94Q428.98-34.94 431.73-32.63Q434.47-30.32 438.17-27.10Q441.87-23.88 444.73-21.02L444.73-21.02Q444.29-18.60 440.70-18.60L440.70-18.60L379.03-18.60ZM314.72-66.28L314.72-104.22L314.72-112.35L338.82-104.22L367.68-104.22L367.68-128.25L394.04-126.27Q393.97-124.73 392.87-123.63Q391.77-122.53 388.62-121.95L388.62-121.95L388.62-104.22L417.48-104.22L427.81-118.51Q427.81-118.51 429.71-116.93Q431.62-115.36 434.51-112.90Q437.40-110.45 440.55-107.67Q443.70-104.88 446.26-102.47L446.26-102.47Q445.61-100.05 442.02-100.05L442.02-100.05L335.67-100.05L335.67-66.28Q335.67-56.91 334.90-46.33Q334.13-35.74 331.24-25.05Q328.34-14.36 322.01-4.47Q315.67 5.42 304.47 13.48L304.47 13.48L303.30 12.45Q308.86 0.81 311.24-12.52Q313.62-25.85 314.17-39.62Q314.72-53.39 314.72-66.28L314.72-66.28Z"/>
    </svg>
        